<?xml version="1.0" standalone="no"?>
<!DOCTYPE svg PUBLIC "-//W3C//DTD SVG 20010904//EN"
 "http://www.w3.org/TR/2001/REC-SVG-20010904/DTD/svg10.dtd">
<svg version="1.0" xmlns="http://www.w3.org/2000/svg"
 width="500.000000pt" height="500.000000pt" viewBox="0 0 500.000000 500.000000"
 preserveAspectRatio="xMidYMid meet">
<metadata>
Created by potrace 1.14, written by Peter Selinger 2001-2017
</metadata>
<g transform="translate(0.000000,500.000000) scale(0.100000,-0.100000)"
fill="#000000" stroke="none">
<path d="M3260 4094 c-47 -25 -141 -75 -210 -111 -69 -36 -129 -69 -133 -73
-8 -7 19 -14 98 -27 17 -2 36 -5 43 -5 18 -2 15 -12 -10 -40 -13 -14 -32 -36
-43 -49 -31 -37 -129 -153 -135 -159 -3 -3 -50 -59 -104 -125 -55 -66 -105
-124 -111 -130 -6 -5 -39 -45 -74 -87 -64 -78 -75 -87 -86 -68 -4 6 -11 8 -16
5 -5 -4 -9 -2 -9 3 0 5 -17 18 -37 27 -21 10 -40 21 -43 24 -12 15 -86 47
-100 44 -8 -2 -29 -23 -47 -46 -17 -23 -40 -51 -50 -62 -10 -11 -38 -45 -63
-75 -25 -30 -95 -113 -155 -185 -61 -71 -117 -139 -125 -150 -8 -11 -25 -28
-36 -38 -21 -17 -23 -16 -109 38 -48 30 -94 55 -100 55 -7 0 -28 -17 -46 -38
-76 -86 -135 -157 -149 -176 -8 -12 -19 -25 -25 -31 -39 -34 -135 -159 -135
-175 0 -23 35 -44 54 -33 8 4 31 28 51 53 56 68 128 152 145 170 8 8 37 43 64
77 l49 61 95 -59 c81 -49 98 -56 116 -47 12 6 23 14 26 18 11 15 66 83 76 94
7 8 343 409 381 456 2 2 13 -2 25 -9 12 -7 42 -25 67 -39 25 -14 62 -35 81
-47 44 -28 60 -22 111 40 23 28 62 74 88 104 49 57 67 78 91 108 25 30 174
207 185 219 5 6 28 33 50 59 22 26 48 57 59 69 10 11 30 36 43 54 14 17 29 32
32 32 4 0 20 -36 36 -81 15 -44 31 -77 35 -72 4 4 38 103 74 218 37 116 71
220 76 233 14 32 -1 28 -100 -24z"/>
<path d="M3947 3774 c-1 -2 -53 -4 -115 -5 -75 -1 -112 -5 -113 -13 -2 -23 5
-208 10 -281 1 -6 35 -9 86 -8 174 4 200 -29 210 -267 3 -74 8 -182 10 -240 2
-58 7 -116 10 -130 3 -14 7 -36 10 -49 15 -82 89 -166 181 -207 62 -27 68 -48
19 -64 -52 -17 -129 -92 -156 -152 -23 -50 -24 -63 -23 -238 1 -102 3 -241 5
-310 3 -127 -6 -168 -43 -197 -23 -18 -81 -33 -148 -37 -36 -2 -69 -5 -74 -5
-5 -1 -6 -62 -3 -138 4 -76 6 -143 7 -150 0 -21 255 -4 350 23 153 44 232 121
274 266 20 68 22 134 11 393 -12 285 -11 325 9 362 28 55 70 72 192 77 l49 2
-1 60 c-1 32 -3 101 -4 152 l-3 92 -88 0 c-71 0 -95 4 -123 20 -61 37 -67 69
-81 435 -10 268 -17 311 -61 402 -59 120 -173 185 -362 206 -17 2 -33 2 -35 1z"/>
<path d="M823 3510 c-167 -34 -267 -119 -307 -262 -23 -83 -25 -120 -26 -428
-1 -281 -2 -290 -23 -322 -35 -51 -76 -66 -190 -67 l-58 -1 3 -152 3 -152 72
-2 c80 -2 133 -16 155 -42 33 -37 37 -84 38 -371 1 -378 17 -455 114 -556 84
-87 200 -122 414 -124 l137 -2 0 150 0 149 -95 4 c-81 2 -100 7 -128 27 -18
13 -39 35 -45 50 -7 16 -14 133 -17 316 -5 233 -10 300 -23 342 -24 70 -92
145 -161 173 -64 27 -66 44 -8 70 63 28 117 76 145 128 23 44 29 64 42 137 2
16 5 142 5 281 1 230 3 255 21 292 27 55 71 74 174 78 44 1 82 3 85 3 5 1 5
271 1 292 -2 12 -254 3 -328 -11z"/>
<path d="M2969 3415 c-1 -5 -2 -419 -3 -920 l-1 -910 -65 -5 c-36 -3 -85 -4
-110 -2 l-46 4 1 641 c1 353 -2 649 -6 657 -6 13 -39 15 -216 13 -114 0 -211
-2 -214 -2 -4 -1 -6 -294 -6 -651 0 -358 -2 -653 -5 -656 -3 -2 -52 -5 -109
-6 l-104 0 -2 418 c-1 231 -2 431 -2 445 l-1 26 -217 -1 -218 -1 0 -27 c1 -16
-2 -28 -6 -28 -7 0 -4 -68 4 -76 3 -4 2 -16 -2 -28 -9 -25 -7 -78 3 -94 4 -7
4 -17 0 -23 -8 -14 -10 -327 -1 -335 3 -3 2 -16 -3 -28 -4 -13 -4 -29 1 -39 6
-10 6 -17 1 -17 -9 0 -9 -67 1 -76 3 -4 2 -16 -2 -28 -5 -11 -6 -36 -4 -53 5
-31 3 -33 -26 -34 -224 -6 -208 -4 -216 -29 -17 -52 -67 -50 1116 -50 1074 0
1099 0 1109 19 11 22 5 47 -13 54 -7 2 -52 4 -100 5 -49 0 -91 3 -94 6 -3 3
-5 417 -5 921 0 503 -3 916 -7 916 -3 1 -102 2 -218 3 -139 1 -213 -2 -214 -9z"/>
</g>
</svg>
